<?xml version="1.0" encoding="UTF-8"?>
<svg id="Layer_1" xmlns="http://www.w3.org/2000/svg" version="1.1" viewBox="0 0 534.5 694.7">
  <!-- Generator: Adobe Illustrator 29.0.1, SVG Export Plug-In . SVG Version: 2.1.0 Build 192)  -->
  <defs>
    <style>
      .st0 {
        fill: #ff1200;
      }
    </style>
  </defs>
  <path class="st0" d="M361.1,377.3c.8.9,1.9,1.5,3.1,1.6,10.7-1.5,21.8-1.9,32.4-3.5,1.3-.2,3.3-.3,2.7-2.2-.2-.8-2.3-4.5-2.8-5.3-1.6-2.3-3.1-2.3-5.6-2.2-6.8.1-13.7,1.1-20.5,1.3-1.6-.2-2-1-1.7-2.5,2.2-9.1,6.4-18.4,8.5-27.4.2-1,.3-2.3,0-3.2-.3-1.4-3.4-7.1-4.3-8.4-.3-.4-.6-.8-1.1-1-.4,0-.8.5-1,.7l-14.3,41.5c-.2,1.3-.2,2.9.4,4.1.7,1.3,3.2,5.4,4.2,6.5Z"/>
  <path class="st0" d="M436.7,294.9c-1.1-1.1-2.7-1.3-4.2-1.2-7.5.3-16.7,1.8-24.3,2.6-2.5.3-5.7.4-8.1.9-1.7.4-2.5.7-1.8,2.6.6,1.5,2.8,5.4,4,6.3.9.7,2,.8,3.1.8,6.5,0,13.6-1.2,20.2-1.3,1.4,0,3-.3,3.2,1.5l-8.8,29.3c0,.5,0,1,0,1.5.2,1.8,3.2,7.5,4.4,9.1.3.5.6.9,1.1,1.2l.7-.5,14.4-42.4c.4-1.4.4-3.2-.2-4.5-.5-1.1-3-5.1-3.8-5.8Z"/>
  <path class="st0" d="M381.9,297.2c-.9.4-3.9,3.4-4.6,4.3-1.6,2.2-.4,3.8.6,5.9,11.2,22.9,24.2,45,35.5,67.8.5.9,1.4,1.8,2.5,1.2.8-.4,3.7-3.5,4.4-4.3.9-1.1,1-1.9.9-3.2l-37.1-70.9c-.4-.7-1.3-1.1-2.1-.8Z"/>
  <path class="st0" d="M133,377.3c.8.9,1.9,1.5,3.1,1.6,10.7-1.5,21.8-1.9,32.4-3.5,1.3-.2,3.3-.3,2.7-2.2-.2-.8-2.3-4.5-2.8-5.3-1.6-2.3-3.1-2.3-5.6-2.2-6.8.1-13.7,1.1-20.5,1.3-1.6-.2-2-1-1.7-2.5,2.2-9.1,6.4-18.4,8.5-27.4.2-1,.3-2.3,0-3.2-.3-1.4-3.4-7.1-4.3-8.4-.3-.4-.6-.8-1.1-1-.4,0-.8.5-1,.7l-14.3,41.5c-.2,1.3-.2,2.9.4,4.1.7,1.3,3.2,5.4,4.2,6.5Z"/>
  <path class="st0" d="M208.6,294.9c-1.1-1.1-2.7-1.3-4.2-1.2-7.5.3-16.7,1.8-24.3,2.6-2.5.3-5.7.4-8.1.9-1.7.4-2.5.7-1.8,2.6.6,1.5,2.8,5.4,4,6.3.9.7,2,.8,3.1.8,6.5,0,13.6-1.2,20.2-1.3,1.4,0,3-.3,3.2,1.5l-8.8,29.3c0,.5,0,1,0,1.5.2,1.8,3.2,7.5,4.4,9.1.3.5.6.9,1.1,1.2l.7-.5,14.4-42.4c.4-1.4.4-3.2-.2-4.5-.5-1.1-3-5.1-3.8-5.8Z"/>
  <path class="st0" d="M153.8,297.2c-.9.4-3.9,3.4-4.6,4.3-1.6,2.2-.4,3.8.6,5.9,11.2,22.9,24.2,45,35.5,67.8.5.9,1.4,1.8,2.5,1.2.8-.4,3.7-3.5,4.4-4.3.9-1.1,1-1.9.9-3.2l-37.1-70.9c-.4-.7-1.3-1.1-2.1-.8Z"/>
  <path class="st0" d="M361.1,105.4c.8.9,1.9,1.5,3.1,1.6,10.7-1.5,21.8-1.9,32.4-3.5,1.3-.2,3.3-.3,2.7-2.2-.2-.8-2.3-4.5-2.8-5.3-1.6-2.3-3.1-2.3-5.6-2.2-6.8.1-13.7,1.1-20.5,1.3-1.6-.2-2-1-1.7-2.5,2.2-9.1,6.4-18.4,8.5-27.4.2-1,.3-2.3,0-3.2-.3-1.4-3.4-7.1-4.3-8.4-.3-.4-.6-.8-1.1-1-.4,0-.8.5-1,.7l-14.3,41.5c-.2,1.3-.2,2.9.4,4.1.7,1.3,3.2,5.4,4.2,6.5Z"/>
  <path class="st0" d="M436.7,23c-1.1-1.1-2.7-1.3-4.2-1.2-7.5.3-16.7,1.8-24.3,2.6-2.5.3-5.7.4-8.1.9-1.7.4-2.5.7-1.8,2.6.6,1.5,2.8,5.4,4,6.3.9.7,2,.8,3.1.8,6.5,0,13.6-1.2,20.2-1.3,1.4,0,3-.3,3.2,1.5l-8.8,29.3c0,.5,0,1,0,1.5.2,1.8,3.2,7.5,4.4,9.1.3.5.6.9,1.1,1.2l.7-.5,14.4-42.4c.4-1.4.4-3.2-.2-4.5-.5-1.1-3-5.1-3.8-5.8Z"/>
  <path class="st0" d="M413.4,103.3c.5.9,1.4,1.8,2.5,1.2.8-.4,3.7-3.5,4.4-4.3.9-1.1,1-1.9.9-3.2l-37.1-70.9c-.4-.7-1.3-1.1-2.1-.8-.9.4-3.9,3.4-4.6,4.3-1.6,2.2-.4,3.8.6,5.9,11.2,22.9,24.2,45,35.5,67.8Z"/>
  <path class="st0" d="M146,98.9c.8.9,1.9,1.5,3.1,1.6,10.7-1.5,21.8-1.9,32.4-3.5,1.3-.2,3.3-.3,2.7-2.2-.2-.8-2.3-4.5-2.8-5.3-1.6-2.3-3.1-2.3-5.6-2.2-6.8.1-13.7,1.1-20.5,1.3-1.6-.2-2-1-1.7-2.5,2.2-9.1,6.4-18.4,8.5-27.4.2-1,.3-2.3,0-3.2-.3-1.4-3.4-7.1-4.3-8.4-.3-.4-.6-.8-1.1-1-.4,0-.8.5-1,.7l-14.3,41.5c-.2,1.3-.2,2.9.4,4.1.7,1.3,3.2,5.4,4.2,6.5Z"/>
  <path class="st0" d="M221.5,16.6c-1.1-1.1-2.7-1.3-4.2-1.2-7.5.3-16.7,1.8-24.3,2.6-2.5.3-5.7.4-8.1.9-1.7.4-2.5.7-1.8,2.6.6,1.5,2.8,5.4,4,6.3.9.7,2,.8,3.1.8,6.5,0,13.6-1.2,20.2-1.3,1.4,0,3-.3,3.2,1.5l-8.8,29.3c0,.5,0,1,0,1.5.2,1.8,3.2,7.5,4.4,9.1.3.5.6.9,1.1,1.2l.7-.5,14.4-42.4c.4-1.4.4-3.2-.2-4.5-.5-1.1-3-5.1-3.8-5.8Z"/>
  <path class="st0" d="M198.3,96.9c.5.9,1.4,1.8,2.5,1.2.8-.4,3.7-3.5,4.4-4.3.9-1.1,1-1.9.9-3.2l-37.1-70.9c-.4-.7-1.3-1.1-2.1-.8-.9.4-3.9,3.4-4.6,4.3-1.6,2.2-.4,3.8.6,5.9,11.2,22.9,24.2,45,35.5,67.8Z"/>
  <path class="st0" d="M158.8,640.8c-1.6-2.3-3.1-2.3-5.6-2.2-6.8.1-13.7,1.1-20.5,1.3-1.6-.2-2-1-1.7-2.5,2.2-9.1,6.4-18.4,8.5-27.4.2-1,.3-2.3,0-3.2-.3-1.4-3.4-7.1-4.3-8.4-.3-.4-.6-.8-1.1-1-.4,0-.8.5-1,.7l-14.3,41.5c-.2,1.3-.2,2.9.4,4.1.7,1.3,3.2,5.4,4.2,6.5.8.9,1.9,1.5,3.1,1.6,10.7-1.5,21.8-1.9,32.4-3.5,1.3-.2,3.3-.3,2.7-2.2-.2-.8-2.3-4.5-2.8-5.3Z"/>
  <path class="st0" d="M199,567.9c-1.1-1.1-2.7-1.3-4.2-1.2-7.5.3-16.7,1.8-24.3,2.6-2.5.3-5.7.4-8.1.9-1.7.4-2.5.7-1.8,2.6.6,1.5,2.8,5.4,4,6.3.9.7,2,.8,3.1.8,6.5,0,13.6-1.2,20.2-1.3,1.4,0,3-.3,3.2,1.5l-8.8,29.3c0,.5,0,1,0,1.5.2,1.8,3.2,7.5,4.4,9.1.3.4.6.9,1.1,1.2l.7-.5,14.4-42.4c.4-1.4.4-3.2-.2-4.5-.5-1.1-3-5.1-3.8-5.8h0Z"/>
  <path class="st0" d="M146.4,570.9c-.4-.7-1.3-1.1-2.1-.8-.9.4-3.9,3.4-4.6,4.3-1.6,2.2-.4,3.8.6,5.9,11.2,22.9,24.2,45,35.5,67.8.5.9,1.4,1.8,2.5,1.2.8-.4,3.7-3.5,4.4-4.3.9-1.1,1-1.9.9-3.2l-37.1-70.9h0Z"/>
  <path class="st0" d="M26.9,255.9c.8.9,1.9,1.5,3.1,1.6,10.7-1.5,21.8-1.9,32.4-3.5,1.3-.2,3.3-.3,2.7-2.2-.2-.8-2.3-4.5-2.8-5.3-1.6-2.3-3.1-2.3-5.6-2.2-6.8.1-13.7,1.1-20.5,1.3-1.6-.2-2-1-1.7-2.5,2.2-9.1,6.4-18.4,8.5-27.4.2-1,.3-2.3,0-3.2-.3-1.4-3.4-7.1-4.3-8.4-.3-.4-.6-.8-1.1-1-.4,0-.8.5-1,.7l-14.3,41.5c-.2,1.3-.2,2.9.4,4.1.7,1.3,3.2,5.4,4.2,6.5Z"/>
  <path class="st0" d="M102.5,173.6c-1.1-1.1-2.7-1.3-4.2-1.2-7.5.3-16.7,1.8-24.3,2.6-2.5.3-5.7.4-8.1.9-1.7.4-2.5.7-1.8,2.6.6,1.5,2.8,5.4,4,6.3.9.7,2,.8,3.1.8,6.5,0,13.6-1.2,20.2-1.3,1.4,0,3-.3,3.2,1.5l-8.8,29.3c0,.5,0,1,0,1.5.2,1.8,3.2,7.5,4.4,9.1.3.5.6.9,1.1,1.2l.7-.5,14.4-42.4c.4-1.4.4-3.2-.2-4.5-.5-1.1-3-5.1-3.8-5.8Z"/>
  <path class="st0" d="M49.8,176.6c-.4-.7-1.3-1.1-2.1-.8-.9.4-3.9,3.4-4.6,4.3-1.6,2.2-.4,3.8.6,5.9,11.2,22.9,24.2,45,35.5,67.8.5.9,1.4,1.8,2.5,1.2.8-.4,3.7-3.5,4.4-4.3.9-1.1,1-1.9.9-3.2,0,0-37.1-70.9-37.1-70.9Z"/>
  <path class="st0" d="M242,502.8c.8.9,1.9,1.5,3.1,1.6,10.7-1.5,21.8-1.9,32.4-3.5,1.3-.2,3.3-.3,2.7-2.2-.2-.8-2.3-4.5-2.8-5.3-1.6-2.3-3.1-2.3-5.6-2.2-6.8.1-13.7,1.1-20.5,1.3-1.6-.2-2-1-1.7-2.5,2.2-9.1,6.4-18.4,8.5-27.4.2-1,.3-2.3,0-3.2-.3-1.4-3.4-7.1-4.3-8.4-.3-.4-.6-.8-1.1-1-.4,0-.8.5-1,.7l-14.3,41.5c-.2,1.3-.2,2.9.4,4.1.7,1.3,3.2,5.4,4.2,6.5Z"/>
  <path class="st0" d="M317.6,420.5c-1.1-1.1-2.7-1.3-4.2-1.2-7.5.3-16.7,1.8-24.3,2.6-2.5.3-5.7.4-8.1.9-1.7.4-2.5.7-1.8,2.6.6,1.5,2.8,5.4,4,6.3.9.7,2,.8,3.1.8,6.5,0,13.6-1.2,20.2-1.3,1.4,0,3-.3,3.2,1.5l-8.8,29.3c0,.5,0,1,0,1.5.2,1.8,3.2,7.5,4.4,9.1.3.5.6.9,1.1,1.2l.7-.5,14.4-42.4c.4-1.4.4-3.2-.2-4.5-.5-1.1-3-5.1-3.8-5.8Z"/>
  <path class="st0" d="M262.8,422.7c-.9.4-3.9,3.4-4.6,4.3-1.6,2.2-.4,3.8.6,5.9,11.2,22.9,24.2,45,35.5,67.8.5.9,1.4,1.8,2.5,1.2.8-.4,3.7-3.5,4.4-4.3.9-1.1,1-1.9.9-3.2l-37.1-70.9c-.4-.7-1.3-1.1-2.1-.8Z"/>
  <path class="st0" d="M40,493.4c-1.6-2.3-3.1-2.3-5.6-2.2-6.8.1-13.7,1.1-20.5,1.3-1.6-.2-2-1-1.7-2.5,2.2-9.1,6.4-18.4,8.5-27.4.2-1,.3-2.3,0-3.2-.3-1.4-3.4-7.1-4.3-8.4-.3-.4-.6-.8-1.1-1-.4,0-.8.5-1,.7L.1,492.2c-.2,1.3-.2,2.9.4,4.1.7,1.3,3.2,5.4,4.2,6.5.8.9,1.9,1.5,3.1,1.6,10.7-1.5,21.8-1.9,32.4-3.5,1.3-.2,3.3-.3,2.7-2.2-.2-.8-2.3-4.5-2.8-5.3Z"/>
  <path class="st0" d="M80.3,420.5c-1.1-1.1-2.7-1.3-4.2-1.2-7.5.3-16.7,1.8-24.3,2.6-2.5.3-5.7.4-8.1.9-1.7.4-2.5.7-1.8,2.6.6,1.5,2.8,5.4,4,6.3.9.7,2,.8,3.1.8,6.5,0,13.6-1.2,20.2-1.3,1.4,0,3-.3,3.2,1.5l-8.8,29.3c0,.5,0,1,0,1.5.2,1.8,3.2,7.5,4.4,9.1.3.5.6.9,1.1,1.2l.7-.5,14.4-42.4c.4-1.4.4-3.2-.2-4.5-.5-1.1-3-5.1-3.8-5.8Z"/>
  <path class="st0" d="M27.6,423.5c-.4-.7-1.3-1.1-2.1-.8-.9.4-3.9,3.4-4.6,4.3-1.6,2.2-.4,3.8.6,5.9,11.2,22.9,24.2,45,35.5,67.8.5.9,1.4,1.8,2.5,1.2.8-.4,3.7-3.5,4.4-4.3.9-1.1,1-1.9.9-3.2,0,0-37.1-70.9-37.1-70.9Z"/>
  <path class="st0" d="M384.4,629c-1.6-2.3-3.1-2.3-5.6-2.2-6.8.1-13.7,1.1-20.5,1.3-1.6-.2-2-1-1.7-2.5,2.2-9.1,6.4-18.4,8.5-27.4.2-1,.3-2.3,0-3.2-.3-1.4-3.4-7.1-4.3-8.4-.3-.4-.6-.8-1.1-1-.4,0-.8.5-1,.7l-14.3,41.5c-.2,1.3-.2,2.9.4,4.1.7,1.3,3.2,5.4,4.2,6.5.8.9,1.9,1.5,3.1,1.6,10.7-1.5,21.8-1.9,32.4-3.5,1.3-.2,3.3-.3,2.7-2.2-.2-.8-2.3-4.5-2.8-5.3Z"/>
  <path class="st0" d="M424.6,556.1c-1.1-1.1-2.7-1.3-4.2-1.2-7.5.3-16.7,1.8-24.3,2.6-2.5.3-5.7.4-8.1.9-1.7.4-2.5.7-1.8,2.6.6,1.5,2.8,5.4,4,6.3.9.7,2,.8,3.1.8,6.5,0,13.6-1.2,20.2-1.3,1.4,0,3-.3,3.2,1.5l-8.8,29.3c0,.5,0,1,0,1.5.2,1.8,3.2,7.5,4.4,9.1.3.5.6.9,1.1,1.2l.7-.5,14.4-42.4c.4-1.4.4-3.2-.2-4.5-.5-1.1-3-5.1-3.8-5.8h0Z"/>
  <path class="st0" d="M372,559.1c-.4-.7-1.3-1.1-2.1-.8-.9.4-3.9,3.4-4.6,4.3-1.6,2.2-.4,3.8.6,5.9,11.2,22.9,24.2,45,35.5,67.8.5.9,1.4,1.8,2.5,1.2.8-.4,3.7-3.5,4.4-4.3.9-1.1,1-1.9.9-3.2l-37.1-70.9h0Z"/>
  <path class="st0" d="M490,489c-1.6-2.3-3.1-2.3-5.6-2.2-6.8.1-13.7,1.1-20.5,1.3-1.6-.2-2-1-1.7-2.5,2.2-9.1,6.4-18.4,8.5-27.4.2-1,.3-2.3,0-3.2-.3-1.4-3.4-7.1-4.3-8.4-.3-.4-.6-.8-1.1-1-.4,0-.8.5-1,.7l-14.3,41.5c-.2,1.3-.2,2.9.4,4.1.7,1.3,3.2,5.4,4.2,6.5.8.9,1.9,1.5,3.1,1.6,10.7-1.5,21.8-1.9,32.4-3.5,1.3-.2,3.3-.3,2.7-2.2-.2-.8-2.3-4.5-2.8-5.3Z"/>
  <path class="st0" d="M534,421.9c-.5-1.1-3-5.1-3.8-5.8-1.1-1.1-2.7-1.3-4.2-1.2-7.5.3-16.7,1.8-24.3,2.6-2.5.3-5.7.4-8.1.9-1.7.4-2.5.7-1.8,2.6.6,1.5,2.8,5.4,4,6.3.9.7,2,.8,3.1.8,6.5,0,13.6-1.2,20.2-1.3,1.4,0,3-.3,3.2,1.5l-8.8,29.3c0,.5,0,1,0,1.5.2,1.8,3.2,7.5,4.4,9.1.3.5.6.9,1.1,1.2l.7-.5,14.4-42.4c.4-1.4.4-3.2-.2-4.5Z"/>
  <path class="st0" d="M477.6,419.1c-.4-.7-1.3-1.1-2.1-.8-.9.4-3.9,3.4-4.6,4.3-1.6,2.2-.4,3.8.6,5.9,11.2,22.9,24.2,45,35.5,67.8.5.9,1.4,1.8,2.5,1.2.8-.4,3.7-3.5,4.4-4.3.9-1.1,1-1.9.9-3.2l-37.1-70.9h0Z"/>
  <path class="st0" d="M229.7,240.5c.8.9,1.9,1.5,3.1,1.6,10.7-1.5,21.8-1.9,32.4-3.5,1.3-.2,3.3-.3,2.7-2.2-.2-.8-2.3-4.5-2.8-5.3-1.6-2.3-3.1-2.3-5.6-2.2-6.8.1-13.7,1.1-20.5,1.3-1.6-.2-2-1-1.7-2.5,2.2-9.1,6.4-18.4,8.5-27.4.2-1,.3-2.3,0-3.2-.3-1.4-3.4-7.1-4.3-8.4-.3-.4-.6-.8-1.1-1-.4,0-.8.5-1,.7l-14.3,41.5c-.2,1.3-.2,2.9.4,4.1.7,1.3,3.2,5.4,4.2,6.5Z"/>
  <path class="st0" d="M305.3,158.2c-1.1-1.1-2.7-1.3-4.2-1.2-7.5.3-16.7,1.8-24.3,2.6-2.5.3-5.7.4-8.1.9-1.7.4-2.5.7-1.8,2.6.6,1.5,2.8,5.4,4,6.3.9.7,2,.8,3.1.8,6.5,0,13.6-1.2,20.2-1.3,1.4,0,3-.3,3.2,1.5l-8.8,29.3c0,.5,0,1,0,1.5.2,1.8,3.2,7.5,4.4,9.1.3.4.6.9,1.1,1.2l.7-.5,14.4-42.4c.4-1.4.4-3.2-.2-4.5-.5-1.1-3-5.1-3.8-5.8Z"/>
  <path class="st0" d="M282,238.5c.5.9,1.4,1.8,2.5,1.2.8-.4,3.7-3.5,4.4-4.3.9-1.1,1-1.9.9-3.2l-37.1-70.9c-.4-.7-1.3-1.1-2.1-.8-.9.4-3.9,3.4-4.6,4.3-1.6,2.2-.4,3.8.6,5.9,11.2,22.9,24.2,45,35.5,67.8Z"/>
  <path class="st0" d="M483.9,240c-.2-.8-2.3-4.5-2.8-5.3-1.6-2.3-3.1-2.3-5.6-2.2-6.8.1-13.7,1.1-20.5,1.3-1.6-.2-2-1-1.7-2.5,2.2-9.1,6.4-18.4,8.5-27.4.2-1,.3-2.3,0-3.2-.3-1.4-3.4-7.1-4.3-8.4-.3-.4-.6-.8-1.1-1-.4,0-.8.5-1,.7l-14.3,41.5c-.2,1.3-.2,2.9.4,4.1.7,1.3,3.2,5.4,4.2,6.5.8.9,1.9,1.5,3.1,1.6,10.7-1.5,21.8-1.9,32.4-3.5,1.3-.2,3.3-.3,2.7-2.2Z"/>
  <path class="st0" d="M486.9,173c.9.7,2,.8,3.1.8,6.5,0,13.6-1.2,20.2-1.3,1.4,0,3-.3,3.2,1.5l-8.8,29.3c0,.5,0,1,0,1.5.2,1.8,3.2,7.5,4.4,9.1.3.4.6.9,1.1,1.2l.7-.5,14.4-42.4c.4-1.4.4-3.2-.2-4.5-.5-1.1-3-5.1-3.8-5.8-1.1-1.1-2.7-1.3-4.2-1.2-7.5.3-16.7,1.8-24.3,2.6-2.5.3-5.7.4-8.1.9-1.7.4-2.5.7-1.8,2.6.6,1.5,2.8,5.4,4,6.3h0Z"/>
  <path class="st0" d="M498,242c.5.9,1.4,1.8,2.5,1.2.8-.4,3.7-3.5,4.4-4.3.9-1.1,1-1.9.9-3.2l-37.1-70.9c-.4-.7-1.3-1.1-2.1-.8-.9.4-3.9,3.4-4.6,4.3-1.6,2.2-.4,3.8.6,5.9,11.2,22.9,24.2,45,35.5,67.8Z"/>
</svg>