<svg width="19" height="19" viewBox="0 0 19 19" fill="none" xmlns="http://www.w3.org/2000/svg">
<path fill-rule="evenodd" clip-rule="evenodd" d="M0.790147 15C0.836881 15 0.883616 14.9953 0.93035 14.9883L4.8723 14.2967C4.91904 14.2874 4.96343 14.2664 4.99615 14.2313L14.9317 4.29673C14.9533 4.27511 14.9705 4.24944 14.9822 4.22118C14.994 4.19291 15 4.16261 15 4.13201C15 4.10141 14.994 4.0711 14.9822 4.04284C14.9705 4.01457 14.9533 3.9889 14.9317 3.96729L11.0364 0.0677578C10.992 0.0233672 10.9336 0 10.8705 0C10.8075 0 10.749 0.0233672 10.7046 0.0677578L0.769123 10.0023C0.734084 10.0374 0.713037 10.0794 0.703709 10.1262L0.0120454 14.0677C-0.0323453 14.3271 0.0470845 14.5818 0.231702 14.7664C0.38592 14.9182 0.582186 15 0.790147 15ZM2.00287 12.9977L2.36974 10.9136L10.8705 2.41355L12.588 4.13084L4.08719 12.6308L2.00287 12.9977ZM11.41 10.6858C12.059 10.3387 12.7528 10.1971 13.4149 10.3221C14.1735 10.4653 14.8146 10.944 15.2656 11.7144C15.9681 12.9147 15.7728 14.1128 14.8323 15.0954C14.4204 15.5258 13.8698 15.916 13.1918 16.2742L13.185 16.2778L13.2048 16.2839C13.5131 16.3766 13.8396 16.4268 14.1784 16.4294L14.2059 16.4295C15.6372 16.4295 16.5727 15.9115 17.1423 14.8387C17.3609 14.4271 17.8717 14.2706 18.2832 14.4892C18.6948 14.7077 18.8513 15.2185 18.6327 15.6301C17.7588 17.2758 16.2399 18.117 14.2059 18.117C13.0883 18.117 12.0511 17.7648 11.2015 17.1475L11.1768 17.1293L11.1449 17.1404C10.0626 17.5153 8.83087 17.8422 7.50342 18.1232L7.45094 18.1342C6.31256 18.3737 5.17148 18.565 4.18952 18.6957C3.72759 18.7573 3.30328 18.4327 3.24176 17.9708C3.18023 17.5088 3.50482 17.0845 3.96673 17.023C4.90882 16.8975 6.00874 16.7132 7.1036 16.4829C8.1067 16.2719 9.04917 16.0344 9.90103 15.7717L9.90651 15.77L9.8963 15.7538C9.51042 15.1338 9.29027 14.4546 9.28359 13.8028L9.28343 13.7723C9.28343 12.6026 10.2105 11.3274 11.41 10.6858ZM13.1019 11.9803C12.8502 11.9328 12.5371 11.9967 12.2059 12.1738C11.5134 12.5442 10.9709 13.2904 10.9709 13.7723C10.9709 14.199 11.1793 14.7132 11.5501 15.1724L11.5556 15.1792L11.5843 15.1672C12.5024 14.7786 13.1894 14.364 13.5983 13.9441L13.6133 13.9285C14.0524 13.4698 14.1145 13.0885 13.8092 12.5668C13.5969 12.2041 13.3632 12.0296 13.1019 11.9803Z" fill="#9253FF"/>
</svg>
