<svg width="21" height="18" viewBox="0 0 21 18" fill="none" xmlns="http://www.w3.org/2000/svg">
<path d="M20.25 0H0.75C0.335156 0 0 0.335156 0 0.75V12.375C0 12.7898 0.335156 13.125 0.75 13.125H9.65625V15.75H5.625C5.41875 15.75 5.25 15.9187 5.25 16.125V17.25C5.25 17.3531 5.33437 17.4375 5.4375 17.4375H15.5625C15.6656 17.4375 15.75 17.3531 15.75 17.25V16.125C15.75 15.9187 15.5813 15.75 15.375 15.75H11.3438V13.125H20.25C20.6648 13.125 21 12.7898 21 12.375V0.75C21 0.335156 20.6648 0 20.25 0ZM19.3125 11.4375H1.6875V1.6875H19.3125V11.4375Z" fill="#9253FF"/>
</svg>
