<svg width="14" height="21" viewBox="0 0 14 21" fill="none" xmlns="http://www.w3.org/2000/svg">
<path d="M12.375 0H1.5C0.672656 0 0 0.672656 0 1.5V19.5C0 20.3273 0.672656 21 1.5 21H12.375C13.2023 21 13.875 20.3273 13.875 19.5V1.5C13.875 0.672656 13.2023 0 12.375 0ZM12.1875 19.3125H1.6875V1.6875H12.1875V19.3125ZM6 16.9219C6 17.1705 6.09877 17.409 6.27459 17.5848C6.4504 17.7606 6.68886 17.8594 6.9375 17.8594C7.18614 17.8594 7.4246 17.7606 7.60041 17.5848C7.77623 17.409 7.875 17.1705 7.875 16.9219C7.875 16.6732 7.77623 16.4348 7.60041 16.259C7.4246 16.0831 7.18614 15.9844 6.9375 15.9844C6.68886 15.9844 6.4504 16.0831 6.27459 16.259C6.09877 16.4348 6 16.6732 6 16.9219Z" fill="#9253FF"/>
</svg>
